# xmcd
#
# Track frame offsets: 
#        150
#        13386
#        27420
#        40597
#        54939
#        67448
#        76491
#        91940
#        105393
#        113507
#        129740
#        141340
#
# Disc length: 2041 seconds
#
# Revision: 0
# Processed by: cddbd v1.5.2PL0 Copyright (c) Steve Scherf et al.
# Submitted via: ExactAudioCopy v1.3
#
DISCID=a107f70c
DTITLE=Frank Chacksfield and His Orchestra and Chorus - Great Country and 
DTITLE=Western Hits
DYEAR=1965
DGENRE=Country
TTITLE0=I walk the line
TTITLE1=I can't stop loving you
TTITLE2=Sixteen tons
TTITLE3=Any time
TTITLE4=Lovesick blues
TTITLE5=Don't let the stars get in your eyes
TTITLE6=El Paso
TTITLE7=Cold, cold heart
TTITLE8=Jambalaya
TTITLE9=Your cheatin' heart
TTITLE10=Hals as much
TTITLE11=Walking the floor over you
EXTD=
EXTT0=
EXTT1=
EXTT2=
EXTT3=
EXTT4=
EXTT5=
EXTT6=
EXTT7=
EXTT8=
EXTT9=
EXTT10=
EXTT11=
PLAYORDER=
